<?xml version="1.0" encoding="utf-8"?>
<!-- Generator: Adobe Illustrator 22.0.0, SVG Export Plug-In . SVG Version: 6.00 Build 0)  -->
<svg version="1.1" id="Слой_2" xmlns="http://www.w3.org/2000/svg" xmlns:xlink="http://www.w3.org/1999/xlink" x="0px" y="0px"
	 viewBox="0 0 324.7 99.3" enable-background="new 0 0 324.7 99.3" xml:space="preserve">
<g>
	<path fill="#24abff" d="M1,33.3C15.7,22.7,30.3,12,45,1.3c15,10,30,20,45,30v35l-45-29l-44,29V33.3z"/>
	<path fill="#24abff" d="M1,67.3l30.3-19l14.2,13c4.8-4.3,9.7-8.7,14.5-13c9.7,6.3,19.3,12.7,29,19c-14.5,10-29,20-43.5,30
		C30.7,87.3,15.8,77.3,1,67.3z"/>
</g>
<g>
	<path d="M136.9,17.9l-13.3,30.8h-7l-13.3-30.8h7.7l9.4,22l9.5-22H136.9z"/>
	<path d="M139.8,20.6c-0.8-0.7-1.2-1.6-1.2-2.7c0-1.1,0.4-2,1.2-2.7c0.8-0.7,1.8-1.1,3.1-1.1c1.3,0,2.3,0.4,3.1,1.1
		c0.8,0.7,1.2,1.6,1.2,2.6c0,1.1-0.4,2.1-1.2,2.8c-0.8,0.7-1.8,1.1-3.1,1.1C141.6,21.7,140.6,21.3,139.8,20.6z M139.4,25h6.9v23.7
		h-6.9V25z"/>
	<path d="M157.3,47.5c-2-1-3.6-2.5-4.7-4.3s-1.7-3.9-1.7-6.3c0-2.3,0.6-4.4,1.7-6.3c1.1-1.8,2.7-3.3,4.7-4.3c2-1,4.3-1.6,6.8-1.6
		c2.5,0,4.7,0.5,6.5,1.6c1.9,1,3.2,2.5,4.1,4.5l-5.3,2.9c-1.2-2.2-3-3.3-5.3-3.3c-1.8,0-3.3,0.6-4.4,1.8c-1.2,1.2-1.8,2.8-1.8,4.8
		s0.6,3.6,1.8,4.8c1.2,1.2,2.7,1.8,4.4,1.8c2.3,0,4.1-1.1,5.3-3.3l5.3,2.9c-0.9,1.9-2.2,3.3-4.1,4.4c-1.9,1.1-4,1.6-6.5,1.6
		C161.6,49,159.3,48.5,157.3,47.5z"/>
	<path d="M201.4,38.8h-17.9c0.3,1.5,1.1,2.6,2.3,3.5c1.2,0.9,2.7,1.3,4.5,1.3c1.2,0,2.3-0.2,3.3-0.6c1-0.4,1.8-0.9,2.7-1.7l3.7,4
		c-2.2,2.6-5.5,3.8-9.8,3.8c-2.7,0-5-0.5-7.1-1.6c-2.1-1-3.6-2.5-4.8-4.3c-1.1-1.8-1.7-3.9-1.7-6.3c0-2.3,0.5-4.4,1.6-6.3
		c1.1-1.9,2.6-3.3,4.5-4.4c1.9-1,4.1-1.6,6.4-1.6c2.3,0,4.4,0.5,6.3,1.5c1.9,1,3.4,2.4,4.4,4.3c1.1,1.9,1.6,4,1.6,6.5
		C201.6,37,201.5,37.6,201.4,38.8z M185.4,31.2c-1.1,0.9-1.7,2.1-1.9,3.6h11.7c-0.2-1.5-0.9-2.7-1.9-3.6c-1.1-0.9-2.3-1.3-3.9-1.3
		C187.7,29.8,186.4,30.3,185.4,31.2z"/>
	<path d="M212.9,47.1c-2.5-1.4-4.5-3.3-6-5.7c-1.5-2.4-2.2-5.2-2.2-8.2c0-3.1,0.7-5.8,2.2-8.2c1.5-2.4,3.4-4.3,6-5.7
		c2.5-1.4,5.4-2,8.6-2c2.7,0,5.1,0.5,7.2,1.4c2.2,0.9,4,2.3,5.4,4l-4.6,4.2c-2.1-2.4-4.7-3.6-7.7-3.6c-1.9,0-3.6,0.4-5.1,1.3
		c-1.5,0.8-2.7,2-3.5,3.5c-0.8,1.5-1.3,3.2-1.3,5.1c0,1.9,0.4,3.6,1.3,5.1c0.8,1.5,2,2.7,3.5,3.5c1.5,0.8,3.2,1.3,5.1,1.3
		c3.1,0,5.7-1.2,7.7-3.7l4.6,4.2c-1.5,1.8-3.3,3.2-5.5,4.1c-2.2,0.9-4.6,1.4-7.3,1.4C218.2,49.2,215.4,48.5,212.9,47.1z"/>
	<path d="M242.1,47.5c-2-1-3.5-2.5-4.6-4.3c-1.1-1.8-1.7-3.9-1.7-6.3c0-2.3,0.6-4.4,1.7-6.3c1.1-1.8,2.7-3.3,4.6-4.3
		c2-1,4.2-1.6,6.7-1.6s4.7,0.5,6.7,1.6c2,1,3.5,2.5,4.6,4.3c1.1,1.8,1.7,3.9,1.7,6.3c0,2.3-0.6,4.4-1.7,6.3
		c-1.1,1.8-2.7,3.3-4.6,4.3c-2,1-4.2,1.6-6.7,1.6S244.1,48.5,242.1,47.5z M253.2,41.6c1.1-1.2,1.7-2.8,1.7-4.8c0-2-0.6-3.6-1.7-4.8
		c-1.1-1.2-2.6-1.8-4.3-1.8c-1.8,0-3.2,0.6-4.4,1.8c-1.1,1.2-1.7,2.8-1.7,4.8c0,2,0.6,3.6,1.7,4.8c1.1,1.2,2.6,1.8,4.4,1.8
		C250.6,43.4,252,42.8,253.2,41.6z"/>
	<path d="M290.5,16v32.6h-6.6v-2.7c-1.7,2.1-4.2,3.1-7.4,3.1c-2.2,0-4.2-0.5-6-1.5c-1.8-1-3.2-2.4-4.2-4.3c-1-1.8-1.5-4-1.5-6.4
		c0-2.4,0.5-4.6,1.5-6.4c1-1.8,2.4-3.3,4.2-4.3c1.8-1,3.8-1.5,6-1.5c3,0,5.4,1,7.1,2.9V16H290.5z M282,41.6c1.1-1.2,1.7-2.8,1.7-4.8
		c0-2-0.6-3.6-1.7-4.8c-1.1-1.2-2.6-1.8-4.3-1.8c-1.8,0-3.2,0.6-4.4,1.8c-1.1,1.2-1.7,2.8-1.7,4.8c0,2,0.6,3.6,1.7,4.8
		c1.1,1.2,2.6,1.8,4.4,1.8C279.5,43.4,280.9,42.8,282,41.6z"/>
	<path d="M319.9,38.8H302c0.3,1.5,1.1,2.6,2.3,3.5c1.2,0.9,2.7,1.3,4.5,1.3c1.2,0,2.3-0.2,3.3-0.6c1-0.4,1.8-0.9,2.7-1.7l3.7,4
		c-2.2,2.6-5.5,3.8-9.8,3.8c-2.7,0-5-0.5-7.1-1.6c-2.1-1-3.6-2.5-4.8-4.3c-1.1-1.8-1.7-3.9-1.7-6.3c0-2.3,0.5-4.4,1.6-6.3
		c1.1-1.9,2.6-3.3,4.5-4.4c1.9-1,4.1-1.6,6.4-1.6c2.3,0,4.4,0.5,6.3,1.5c1.9,1,3.4,2.4,4.4,4.3c1.1,1.9,1.6,4,1.6,6.5
		C320,37,320,37.6,319.9,38.8z M303.8,31.2c-1.1,0.9-1.7,2.1-1.9,3.6h11.7c-0.2-1.5-0.9-2.7-1.9-3.6c-1.1-0.9-2.3-1.3-3.9-1.3
		C306.2,29.8,304.9,30.3,303.8,31.2z"/>
</g>
<g>
	<path d="M106.9,77.1c-0.8-0.4-1.4-1-1.9-1.8s-0.7-1.6-0.7-2.6s0.2-1.8,0.7-2.6c0.5-0.8,1.1-1.4,1.9-1.8c0.8-0.4,1.7-0.7,2.7-0.7
		c0.8,0,1.5,0.1,2.2,0.4s1.2,0.7,1.7,1.2l-1.2,1.1c-0.7-0.8-1.6-1.1-2.6-1.1c-0.7,0-1.3,0.1-1.8,0.4s-0.9,0.7-1.2,1.2
		c-0.3,0.5-0.4,1.1-0.4,1.8s0.1,1.3,0.4,1.8s0.7,0.9,1.2,1.2s1.1,0.4,1.8,0.4c1,0,1.9-0.4,2.6-1.2l1.2,1.1c-0.5,0.5-1,0.9-1.7,1.2
		c-0.7,0.3-1.4,0.4-2.2,0.4C108.6,77.7,107.7,77.5,106.9,77.1z"/>
	<path d="M116.8,77.1c-0.8-0.4-1.4-1-1.9-1.8s-0.7-1.6-0.7-2.6c0-1,0.2-1.8,0.7-2.6s1.1-1.4,1.9-1.8s1.7-0.7,2.7-0.7
		c1,0,1.9,0.2,2.7,0.7s1.4,1,1.9,1.8c0.5,0.8,0.7,1.6,0.7,2.6s-0.2,1.8-0.7,2.6s-1.1,1.4-1.9,1.8c-0.8,0.4-1.7,0.7-2.7,0.7
		C118.5,77.7,117.6,77.5,116.8,77.1z M121.2,75.7c0.5-0.3,0.9-0.7,1.2-1.2s0.4-1.1,0.4-1.8c0-0.7-0.1-1.2-0.4-1.8
		c-0.3-0.5-0.7-0.9-1.2-1.2c-0.5-0.3-1.1-0.4-1.8-0.4c-0.7,0-1.2,0.1-1.8,0.4s-0.9,0.7-1.2,1.2c-0.3,0.5-0.4,1.1-0.4,1.8
		c0,0.7,0.1,1.2,0.4,1.8c0.3,0.5,0.7,0.9,1.2,1.2s1.1,0.4,1.8,0.4C120.1,76.1,120.7,76,121.2,75.7z"/>
	<path d="M134.7,73.4c0.3,0.4,0.5,0.9,0.5,1.5c0,0.9-0.3,1.5-1,2c-0.6,0.5-1.6,0.7-2.8,0.7h-4.7v-9.8h4.4c1.1,0,2,0.2,2.6,0.7
		c0.6,0.4,0.9,1.1,0.9,1.9c0,0.5-0.1,1-0.4,1.3c-0.2,0.4-0.6,0.7-1.1,0.9C133.9,72.7,134.3,72.9,134.7,73.4z M128.6,72h2.4
		c0.6,0,1-0.1,1.3-0.4c0.3-0.2,0.5-0.6,0.5-1c0-0.5-0.2-0.8-0.5-1c-0.3-0.2-0.8-0.4-1.3-0.4h-2.4V72z M133.3,74.7
		c0-1-0.6-1.4-1.9-1.4h-2.8v2.9h2.8C132.7,76.2,133.3,75.7,133.3,74.7z"/>
	<path d="M143.5,68.2c0.6,0.3,1.1,0.7,1.5,1.2c0.3,0.5,0.5,1.1,0.5,1.9c0,0.7-0.2,1.3-0.5,1.9c-0.3,0.5-0.8,0.9-1.5,1.2
		s-1.4,0.4-2.2,0.4H139v2.8h-1.8v-9.8h4C142.1,67.8,142.8,67.9,143.5,68.2z M143,72.7c0.4-0.3,0.6-0.8,0.6-1.4
		c0-0.6-0.2-1.1-0.6-1.4c-0.4-0.3-1-0.5-1.8-0.5H139v3.9h2.1C142,73.2,142.6,73.1,143,72.7z"/>
	<path d="M154.5,76.1v1.5h-7.4v-9.8h7.2v1.5H149v2.5h4.7v1.5H149v2.7H154.5z"/>
	<path d="M165.5,77.6l0-6.5l-3.2,5.4h-0.8l-3.2-5.3v6.4h-1.7v-9.8h1.5l3.9,6.5l3.8-6.5h1.5l0,9.8H165.5z"/>
	<path d="M177.4,76.1v1.5H170v-9.8h7.2v1.5h-5.3v2.5h4.7v1.5h-4.7v2.7H177.4z"/>
	<path d="M188.1,67.8v9.8h-1.8v-4.2h-5.1v4.2h-1.8v-9.8h1.8v4h5.1v-4H188.1z"/>
	<path d="M199.6,67.8v9.8h-1.8v-4.2h-5.1v4.2h-1.8v-9.8h1.8v4h5.1v-4H199.6z"/>
	<path d="M209.6,71.9c0.6,0.5,0.9,1.3,0.9,2.3c0,1.1-0.3,1.9-1,2.5s-1.7,0.9-2.9,0.9h-4.2v-9.8h1.8v3.3h2.7
		C208,71.1,208.9,71.4,209.6,71.9z M208.1,75.7c0.4-0.3,0.6-0.8,0.6-1.4c0-1.2-0.7-1.8-2.2-1.8h-2.3v3.7h2.3
		C207.2,76.2,207.7,76,208.1,75.7z M211.9,67.8h1.8v9.8h-1.8V67.8z"/>
	<path d="M223.8,76.1v1.5h-7.4v-9.8h7.2v1.5h-5.3v2.5h4.7v1.5h-4.7v2.7H223.8z"/>
	<path d="M229.7,67.8h1.8v9.8h-1.8V67.8z"/>
	<path d="M236.1,69.3h-3.3v-1.5h8.3v1.5H238v8.3h-1.8V69.3z"/>
	<path d="M241.9,71.9h3.9v1.5h-3.9V71.9z"/>
	<path d="M254.3,68.2c0.6,0.3,1.1,0.7,1.5,1.2c0.3,0.5,0.5,1.1,0.5,1.9c0,0.7-0.2,1.3-0.5,1.9s-0.8,0.9-1.5,1.2
		c-0.6,0.3-1.4,0.4-2.2,0.4h-2.2v2.8h-1.8v-9.8h4C253,67.8,253.7,67.9,254.3,68.2z M253.8,72.7c0.4-0.3,0.6-0.8,0.6-1.4
		c0-0.6-0.2-1.1-0.6-1.4c-0.4-0.3-1-0.5-1.8-0.5h-2.1v3.9h2.1C252.8,73.2,253.4,73.1,253.8,72.7z"/>
	<path d="M265.4,76.1v1.5H258v-9.8h7.2v1.5h-5.3v2.5h4.7v1.5h-4.7v2.7H265.4z"/>
	<path d="M280,67.8v9.8h-12.6v-9.8h1.8v8.3h3.6v-8.3h1.8v8.3h3.6v-8.3H280z"/>
	<path d="M290.1,76.1v1.5h-7.4v-9.8h7.2v1.5h-5.3v2.5h4.7v1.5h-4.7v2.7H290.1z"/>
	<path d="M300.9,67.8v9.8H299v-4.2H294v4.2h-1.8v-9.8h1.8v4h5.1v-4H300.9z"/>
	<path d="M303.6,67.8h1.8v7l5.3-7h1.7v9.8h-1.8v-6.9l-5.3,6.9h-1.7V67.8z"/>
	<path d="M322.6,67.8v9.8h-1.8v-2.7h-2.4h-0.2l-1.8,2.7h-1.9l2.1-3c-0.7-0.3-1.2-0.7-1.6-1.2c-0.4-0.5-0.6-1.2-0.6-2
		c0-0.7,0.2-1.4,0.5-1.9c0.3-0.5,0.8-1,1.4-1.2c0.6-0.3,1.3-0.4,2.2-0.4H322.6z M316.9,69.8c-0.4,0.3-0.6,0.8-0.6,1.5
		c0,0.6,0.2,1.1,0.6,1.5c0.4,0.4,0.9,0.5,1.7,0.5h2.3v-4h-2.2C317.8,69.3,317.3,69.5,316.9,69.8z"/>
</g>
</svg>
